<svg version="1.1" xmlns="http://www.w3.org/2000/svg" width="80" height="80">
    <path
        d="M0 0 C2.78388975 1.70625501 3.85384206 2.47626739 4.75 5.6875 C4.87375 6.8321875 4.87375 6.8321875 5 8 C5.66 8 6.32 8 7 8 C7 8.66 7 9.32 7 10 C7.99 10.33 8.98 10.66 10 11 C10.33333333 12.33333333 10.66666667 13.66666667 11 15 C11.99 15.33 12.98 15.66 14 16 C14 16.66 14 17.32 14 18 C14.639375 18.103125 15.27875 18.20625 15.9375 18.3125 C16.618125 18.539375 17.29875 18.76625 18 19 C18.495 20.485 18.495 20.485 19 22 C15 22 15 22 13.29248047 20.73071289 C12.73963379 20.1505542 12.18678711 19.57039551 11.6171875 18.97265625 C11.00746094 18.34552734 10.39773437 17.71839844 9.76953125 17.07226562 C9.14433594 16.40904297 8.51914062 15.74582031 7.875 15.0625 C6.62445308 13.75974083 5.37194013 12.45886518 4.1171875 11.16015625 C3.56659668 10.57886963 3.01600586 9.99758301 2.44873047 9.39868164 C1.03207629 7.89124375 1.03207629 7.89124375 -1 7 C-1.23460937 7.56203125 -1.46921875 8.1240625 -1.7109375 8.703125 C-3.30663 11.54635891 -5.28924543 13.48098127 -7.625 15.75 C-8.44226563 16.54921875 -9.25953125 17.3484375 -10.1015625 18.171875 C-10.72804688 18.77515625 -11.35453125 19.3784375 -12 20 C-12.99 19.67 -13.98 19.34 -15 19 C-14.34 17.68 -13.68 16.36 -13 15 C-12.34 15 -11.68 15 -11 15 C-10.67 14.01 -10.34 13.02 -10 12 C-9.34 12 -8.68 12 -8 12 C-7.67 11.01 -7.34 10.02 -7 9 C-6.34 9 -5.68 9 -5 9 C-4.67 8.01 -4.34 7.02 -4 6 C-3.34 6 -2.68 6 -2 6 C-1.34 4.02 -0.68 2.04 0 0 Z "
        fill="#1E3D83" transform="translate(29,9)" />
    <path
        d="M0 0 C0.33 0 0.66 0 1 0 C1.34375 2.13671875 1.34375 2.13671875 1 5 C-0.78663019 7.1491769 -2.46395503 8.93903847 -4.5 10.8125 C-5.02464844 11.31458984 -5.54929687 11.81667969 -6.08984375 12.33398438 C-7.38222532 13.56762133 -8.68969599 14.78541625 -10 16 C-10.99 15.67 -11.98 15.34 -13 15 C-12.34 13.68 -11.68 12.36 -11 11 C-10.34 11 -9.68 11 -9 11 C-8.67 10.01 -8.34 9.02 -8 8 C-7.34 8 -6.68 8 -6 8 C-5.67 7.01 -5.34 6.02 -5 5 C-4.34 5 -3.68 5 -3 5 C-2.67 4.01 -2.34 3.02 -2 2 C-1.34 2 -0.68 2 0 2 C0 1.34 0 0.68 0 0 Z "
        fill="#1C3B82" transform="translate(27,13)" />
    <path
        d="M0 0 C1.084021 0.00523682 2.16804199 0.01047363 3.28491211 0.01586914 C5.03964844 0.02070312 5.03964844 0.02070312 6.82983398 0.02563477 C8.67738281 0.03820313 8.67738281 0.03820313 10.56225586 0.05102539 C12.41560547 0.05779297 12.41560547 0.05779297 14.30639648 0.06469727 C17.37089703 0.07652931 20.43530307 0.09301366 23.49975586 0.11352539 C23.49975586 0.77352539 23.49975586 1.43352539 23.49975586 2.11352539 C19.875846 2.94981228 16.83761251 3.11945201 13.18725586 2.61352539 C9.08594598 2.05141693 5.51172154 2.34800447 1.44506836 3.05493164 C-0.50024414 3.11352539 -0.50024414 3.11352539 -3.50024414 1.11352539 C-2.50024414 0.11352539 -2.50024414 0.11352539 0 0 Z "
        fill="#C7C8D2" transform="translate(18.500244140625,33.886474609375)" />
    <path
        d="M0 0 C0.66 0 1.32 0 2 0 C0.62581378 4.49733673 -1.31472397 6.19217064 -5 9 C-5.99 10.2684375 -5.99 10.2684375 -7 11.5625 C-9.11230342 14.13686979 -11.07555793 15.45654447 -14 17 C-13.6875 15.0625 -13.6875 15.0625 -13 13 C-12.01 12.67 -11.02 12.34 -10 12 C-8.79117904 9.99983534 -8.79117904 9.99983534 -8 8 C-7.34 8 -6.68 8 -6 8 C-5.34 6.68 -4.68 5.36 -4 4 C-3.34 4 -2.68 4 -2 4 C-1.34 2.68 -0.68 1.36 0 0 Z "
        fill="#9BA4BC" transform="translate(27,10)" />
    <path
        d="M0 0 C2.54343685 2.53887053 5.08139143 5.08248967 7.60546875 7.640625 C8.45753906 8.50171875 9.30960938 9.3628125 10.1875 10.25 C11.04730469 11.12140625 11.90710938 11.9928125 12.79296875 12.890625 C14.81431066 15.02994238 14.81431066 15.02994238 17 16 C16.67 16.99 16.34 17.98 16 19 C15.566875 18.525625 15.13375 18.05125 14.6875 17.5625 C12.97690387 15.76313043 12.97690387 15.76313043 10 15 C8.62517293 13.36739286 7.29352333 11.69774938 6 10 C5.13375 9.1646875 5.13375 9.1646875 4.25 8.3125 C3 7 3 7 3 5 C2.34 5 1.68 5 1 5 C0.67 3.35 0.34 1.7 0 0 Z "
        fill="#929CB7" transform="translate(33,12)" />
    <path d="M0 0 C1.98 0 3.96 0 6 0 C6 1.98 6 3.96 6 6 C4.02 6 2.04 6 0 6 C0 4.02 0 2.04 0 0 Z "
        fill="#4E6499" transform="translate(26,24)" />
    <path
        d="M0 0 C0.99 0.495 0.99 0.495 2 1 C2 1.66 2 2.32 2 3 C2.99 3.33 3.98 3.66 5 4 C5 4.66 5 5.32 5 6 C5.639375 6.103125 6.27875 6.20625 6.9375 6.3125 C7.618125 6.539375 8.29875 6.76625 9 7 C9.33 7.99 9.66 8.98 10 10 C6 10 6 10 4.296875 8.828125 C3.53117187 8.04695313 3.53117187 8.04695313 2.75 7.25 C1.96882813 6.48429687 1.96882813 6.48429687 1.171875 5.703125 C0 4 0 4 0 0 Z "
        fill="#0D2F7C" transform="translate(38,21)" />
    <path
        d="M0 0 C-1.98 1.98 -3.96 3.96 -6 6 C-6.99 5.67 -7.98 5.34 -9 5 C-8.00233891 2.50584728 -7.31383315 1.21259665 -5.0625 -0.3125 C-3 -1 -3 -1 0 0 Z "
        fill="#2B4789" transform="translate(23,23)" />
    <path
        d="M0 0 C1.9375 0.3125 1.9375 0.3125 4 1 C4.33 1.99 4.66 2.98 5 4 C3.68 4 2.36 4 1 4 C0.67 2.68 0.34 1.36 0 0 Z "
        fill="#1C3A81" transform="translate(43,27)" />
</svg>